<?xml version="1.0" encoding="UTF-8" standalone="no"?>
<!DOCTYPE svg PUBLIC "-//W3C//DTD SVG 1.1//EN" "http://www.w3.org/Graphics/SVG/1.1/DTD/svg11.dtd">
<svg width="100%" height="100%" viewBox="0 0 1024 1024" version="1.1" xmlns="http://www.w3.org/2000/svg" xmlns:xlink="http://www.w3.org/1999/xlink" xml:space="preserve" xmlns:serif="http://www.serif.com/" style="fill-rule:evenodd;clip-rule:evenodd;stroke-linejoin:round;stroke-miterlimit:2;">
    <g transform="matrix(1.19787,0,0,1.19787,205.784,-33.3087)">
        <path d="M119.025,618.391C126.905,621.997 135.333,627.444 142.851,632.012L180.343,654.958C183.335,656.771 192.413,662.599 195.171,663.952C195.859,670.255 195.399,685.539 195.359,692.614C195.464,702.502 195.518,712.39 195.523,722.278C208.137,714.823 220.28,706.909 232.853,699.442C236.007,697.569 242.517,693.212 245.42,691.784C260.413,701.459 276.165,710.361 291.175,720.072C292.418,720.876 294.269,722.031 295.56,722.676C295.735,713.832 294.723,666.384 296.302,663.675C305.256,668.436 317.887,677.797 326.226,681.736C325.731,680.358 322.769,677.933 325.482,675.645L326.295,675.726C331.406,679.415 338.823,681.593 343.554,685.215C346.294,687.312 360.603,695.386 361.913,697.146C365.475,699.083 368.236,700.734 371.649,702.925C369.345,705.282 368.334,705.036 368.655,708.562C369.334,709.21 369.545,709.313 369.775,710.237C369.625,711.771 369.451,713.318 369.382,714.855C369.857,731.654 369.734,749.132 369.712,765.971C369.687,773.148 369.709,780.325 369.778,787.502C369.831,790.514 370.224,797.105 370.009,799.85C369.148,799.246 368.203,798.484 367.355,797.836C358.602,792.332 349.887,786.771 341.208,781.152C334.912,777.124 327.75,772.755 321.732,768.439C321.603,788.817 321.687,809.197 321.984,829.573C309.695,836.694 297.853,844.523 285.819,852.085C272.392,860.523 258.435,868.913 245.41,877.948C226.745,865.07 205.879,853.75 186.811,841.317C181.068,837.572 174.74,833.66 168.774,830.354C168.543,822.961 168.8,814.423 168.822,806.944L168.742,768.246C153.177,777.297 133.032,791.366 117.671,801.5C98.295,787.934 77.693,775.886 58.188,762.48C52.656,758.678 47.098,755.16 41.204,751.936C41.195,723.003 40.816,693.221 41.263,664.359C45.734,662.405 60.522,653.044 65.686,650.091C75.451,643.876 86,637.685 95.92,631.645C102.064,627.903 112.786,621.095 119.025,618.391Z" style="fill:rgb(81,85,158);fill-rule:nonzero;"/>
        <path d="M245.42,691.784C260.413,701.459 276.165,710.361 291.175,720.072C292.418,720.876 294.269,722.031 295.56,722.676C304.299,727.648 312.862,732.922 321.234,738.49C315.192,742.172 309.209,745.951 303.287,749.824C300.209,751.829 294.866,755.54 291.804,757.157C289.073,759.096 286.218,760.753 283.395,762.541C271.592,770.019 259.496,777.278 247.906,785.071L247.806,793.25C246.858,789.551 247.137,789.265 245.294,785.771L244.692,785.386C243.739,787.973 244.872,792.032 243.893,793.464L243.375,793.683L243.397,785.529C239.106,782.287 228.597,776.188 223.625,773.337C220.275,770.875 213.143,766.904 209.279,764.456C207.066,763.423 199.045,758.237 196.577,756.715C187.325,751.049 178.118,745.312 168.954,739.503C177.43,733.094 186.815,728.176 195.523,722.278C208.137,714.823 220.28,706.909 232.853,699.442C236.007,697.569 242.517,693.212 245.42,691.784Z" style="fill:url(#_Linear1);fill-rule:nonzero;"/>
        <path d="M245.994,779.27L272.898,762.129C277.417,759.276 286.571,753.427 291.204,751.421L291.33,751.777L288.294,753.535C286.759,754.428 282.688,756.461 282.298,757.936C283.526,758.577 283.741,759.076 284.419,760.241L284.64,760.626C285.504,760.627 289.039,757.687 291.138,756.789L291.804,757.157C289.073,759.096 286.218,760.753 283.395,762.541C271.592,770.019 259.496,777.278 247.906,785.071L247.806,793.25C246.858,789.551 247.137,789.265 245.294,785.771L244.692,785.386C243.739,787.973 244.872,792.032 243.893,793.464L243.375,793.683L243.397,785.529C239.106,782.287 228.597,776.188 223.625,773.337C220.275,770.875 213.143,766.904 209.279,764.456C212.574,763.877 215.577,768.956 218.902,768.94C219.371,767.925 220.156,766.295 220.647,765.354C221.256,764.185 217.765,763.978 216.977,762.241L217.475,762.079C220.671,763.555 226.311,767.336 229.563,769.375C234.977,772.777 240.455,776.076 245.994,779.27Z" style="fill:url(#_Linear2);fill-rule:nonzero;"/>
        <path d="M119.025,618.391C126.905,621.997 135.333,627.444 142.851,632.012L180.343,654.958C183.335,656.771 192.413,662.599 195.171,663.952C192.312,665.148 190.19,666.54 187.563,668.153C183.848,670.384 172.782,677.611 169.843,678.986C164.722,682.556 159.13,685.701 153.832,689.058C142.992,695.927 131.799,702.383 121.148,709.54C120.525,709.959 120.485,710.709 120.455,711.363C120.313,713.406 120.259,717.946 119.428,719.442L118.947,719.28L119.563,718.139C117.84,718.282 115.897,719.046 114.779,717.267C114.751,715.009 114.805,712.75 114.941,710.496C112.445,708.465 109.767,706.669 106.942,705.13C106.571,704.76 103.758,702.926 103.142,702.513C101.819,702.056 88.828,693.832 87.223,692.817C76.091,685.671 64.859,678.68 53.532,671.848C49.743,669.559 45.02,666.354 41.263,664.359C45.734,662.405 60.522,653.044 65.686,650.091C75.451,643.876 86,637.685 95.92,631.645C102.064,627.903 112.786,621.095 119.025,618.391Z" style="fill:url(#_Linear3);fill-rule:nonzero;"/>
        <path d="M41.263,664.359C45.734,662.405 60.522,653.044 65.686,650.091L64.269,652.351C67.459,656.376 68.37,659.731 67.739,664.928C67.449,667.28 66.886,669.591 66.06,671.812C69.069,673.653 105.932,697.212 106.18,697.693C107.931,698.745 116.291,704.021 117.492,704.387C115.63,704.978 116.085,704.551 115.218,705.833C115.192,707.188 115.338,709.36 114.941,710.496C112.445,708.465 109.767,706.669 106.942,705.13C106.571,704.76 103.758,702.926 103.142,702.513C101.819,702.056 88.828,693.832 87.223,692.817C76.091,685.671 64.859,678.68 53.532,671.848C49.743,669.559 45.02,666.354 41.263,664.359Z" style="fill:rgb(126,199,224);fill-rule:nonzero;"/>
        <path d="M106.18,697.693C107.931,698.745 116.291,704.021 117.492,704.387C115.63,704.978 116.085,704.551 115.218,705.833C115.192,707.188 115.338,709.36 114.941,710.496C112.445,708.465 109.767,706.669 106.942,705.13C106.571,704.76 103.758,702.926 103.142,702.513C104.893,702.78 105.401,702.586 107.071,702.219L107.433,702.137C106.757,703.169 106.885,702.675 107.047,703.982L108.187,704.657C109.109,703.911 110.31,702.483 111.007,701.534C109.587,701.002 106.647,699.147 106.18,697.693Z" style="fill:rgb(138,223,217);fill-rule:nonzero;"/>
        <path d="M117.492,704.387C131.281,697.349 146.973,685.005 161.325,677.971L161.608,678.303L150.948,684.691C151.93,686.157 152.556,686.665 153.847,687.848C155.194,687.617 166.874,679.701 169.605,678.336L169.843,678.986C164.722,682.556 159.13,685.701 153.832,689.058C142.992,695.927 131.799,702.383 121.148,709.54C120.525,709.959 120.485,710.709 120.455,711.363C120.313,713.406 120.259,717.946 119.428,719.442L118.947,719.28L119.563,718.139C117.84,718.282 115.897,719.046 114.779,717.267C114.751,715.009 114.805,712.75 114.941,710.496C115.338,709.36 115.192,707.188 115.218,705.833C116.085,704.551 115.63,704.978 117.492,704.387Z" style="fill:url(#_Linear4);fill-rule:nonzero;"/>
        <path d="M243.375,793.683L243.893,793.464C244.872,792.032 243.739,787.973 244.692,785.386L245.294,785.771C247.137,789.265 246.858,789.551 247.806,793.25C248.593,800.504 248.247,821.246 248.133,829.233C246.672,835.137 248.381,844.429 247.372,850.587C247.397,850.429 244.971,852.671 244.915,852.707C244.164,851.898 243.628,851.013 243.628,849.877C243.622,836.209 242.843,822.579 243.189,808.9C243.316,803.877 242.961,798.668 243.375,793.683Z" style="fill:rgb(126,199,224);fill-rule:nonzero;"/>
        <path d="M326.226,681.736C325.731,680.358 322.769,677.933 325.482,675.645L326.295,675.726C331.406,679.415 338.823,681.593 343.554,685.215C346.294,687.312 360.603,695.386 361.913,697.146C362.973,699.375 364.489,698.554 364.953,699.855L364.595,699.953C362.859,700.448 362.051,701.038 360.887,702.524C359.564,701.742 357.907,700.473 356.555,700.441L356.177,700.667C353.626,699.357 346.673,694.774 344.072,693.101C338.519,689.527 331.521,685.492 326.226,681.736Z" style="fill:rgb(186,224,110);fill-rule:nonzero;"/>
        <path d="M114.779,717.267C115.897,719.046 117.84,718.282 119.563,718.139L118.947,719.28L119.428,719.442C120.259,717.946 120.313,713.406 120.455,711.363C120.512,718.234 121.123,768.851 119.794,772.286C119.667,770.217 119.892,755.104 119.459,754.362C112.905,754.912 115.439,766.201 115.09,771.974C114.548,768.385 114.65,759.154 114.636,755.278C114.607,746.65 114.428,737.567 114.632,728.961L114.779,717.267Z" style="fill:url(#_Linear5);fill-rule:nonzero;"/>
        <path d="M223.625,773.337C228.597,776.188 239.106,782.287 243.397,785.529L243.375,793.683C242.961,798.668 243.316,803.877 243.189,808.9C242.843,822.579 243.622,836.209 243.628,849.877C243.628,851.013 244.164,851.898 244.915,852.707C244.971,852.671 247.397,850.429 247.372,850.587C248.381,844.429 246.672,835.137 248.133,829.233C248.437,832.171 248.268,839.084 248.255,842.257C248.226,849.367 248.345,856.892 248.098,863.972C247.183,861.404 249.233,854.055 245.594,853.256C242.737,854.747 243.688,860.691 243.417,863.386C243.408,856.4 243.617,848.851 242.749,841.947C242.476,839.78 241.375,838.089 241.306,835.783C241.03,826.531 244.291,792.343 240.716,786.12C237.477,780.481 226.228,777.993 223.731,773.548C223.693,773.479 223.66,773.407 223.625,773.337Z" style="fill:rgb(59,59,113);fill-rule:nonzero;"/>
        <path d="M367.355,797.836L367.591,797.09L368.799,798.067L369.15,797.831C369.263,788.502 368.82,776.166 368.576,766.797C367.964,768.814 368.364,782.611 368.295,785.982C367.416,784.429 368.35,718.882 368.787,712.083L369.065,711.841L369.382,714.855C369.857,731.654 369.734,749.132 369.712,765.971C369.687,773.148 369.709,780.325 369.778,787.502C369.831,790.514 370.224,797.105 370.009,799.85C369.148,799.246 368.203,798.484 367.355,797.836Z" style="fill:rgb(59,59,113);fill-rule:nonzero;"/>
        <path d="M361.913,697.146C365.475,699.083 368.236,700.734 371.649,702.925C369.345,705.282 368.334,705.036 368.655,708.562C364.475,705.963 360.315,703.331 356.177,700.667L356.555,700.441C357.907,700.473 359.564,701.742 360.887,702.524C362.051,701.038 362.859,700.448 364.595,699.953L364.953,699.855C364.489,698.554 362.973,699.375 361.913,697.146Z" style="fill:rgb(227,233,119);fill-rule:nonzero;"/>
        <path d="M114.632,728.961L114.166,729.309C113.877,727.991 112.808,725.191 112.674,724.333C112.389,722.52 111.918,713.988 112.212,712.656C113.012,712.393 113.133,712.359 113.906,711.932C113.867,710.978 113.504,710.673 112.926,709.907C111.797,710.098 112.7,710.694 111.422,711.062C109.67,708.732 108.974,707.887 106.833,705.833L106.942,705.13C109.767,706.669 112.445,708.465 114.941,710.496C114.805,712.75 114.751,715.009 114.779,717.267L114.632,728.961Z" style="fill:rgb(59,59,113);fill-rule:nonzero;"/>
        <path d="M187.563,668.153C190.19,666.54 192.312,665.148 195.171,663.952C195.859,670.255 195.399,685.539 195.359,692.614C194.456,694.789 195.872,702.139 194.748,705.756L194.382,705.554C194.021,704.085 194.133,700.034 194.065,698.273C193.732,689.723 195.236,674.227 193.969,666.235C191.593,666.475 190.155,667.791 187.563,668.153Z" style="fill:rgb(59,59,113);fill-rule:nonzero;"/>
        <path d="M139.139,277.87C130.832,264.072 136.336,246.918 152.188,245.361C179.619,242.666 182.586,285.458 152.056,287.084C147.094,293.774 143.044,300.494 138.436,307.38L113.133,345.027C113.538,345.755 113.915,346.497 114.265,347.252C121.131,361.712 116.077,376.263 101.458,382.908C101.329,395.597 101.514,408.588 101.563,421.298C104.812,419.804 111.138,415.721 114.42,413.717C121.467,409.415 129.407,404.988 136.112,400.276L136.069,367.555C136.067,363.324 135.855,353.694 136.433,349.854C139.049,349.568 151.975,340.411 155.948,338.421C157.811,336.865 160.646,335.4 162.761,334.092C172.031,328.359 181.663,322.902 190.756,316.896C202.676,324.244 214.529,331.7 226.313,339.263C231.235,342.424 237.17,345.989 241.851,349.373C242.389,352.376 242.12,364.87 242.108,368.724C242.007,382.738 242.006,396.753 242.107,410.767C228.939,419.677 214.698,427.552 201.402,436.332C187.26,445.672 175.562,449.164 171.194,467.229C171.763,474.936 188.255,477.42 190.59,480.615C190.572,482.056 190.417,482.917 191.079,484.184C193.528,484.245 236.922,455.387 242.555,452.358C243.514,451.842 244.506,451.029 246.028,450.528L246.636,450.95C246.27,460.104 246.162,480.999 246.928,490.382C241.135,493.528 233.647,498.787 227.79,502.472C214.419,510.797 201.091,519.191 187.806,527.653C184.132,529.993 172.73,536.326 170.207,538.67C170.407,548.605 170.751,565.081 170.439,574.642C159.272,580.643 148.404,587.692 137.485,594.143C132.08,597.336 125.41,601.687 119.749,604.227C94.04,589.815 77.012,558.63 78.853,529.246C79.147,524.559 78.861,518.86 78.869,514.088L78.956,472.583C78.077,463.48 79.519,449.587 83.613,441.376C84.728,439.139 87.03,436.239 87.209,434.13C87.72,428.12 87.578,421.764 87.58,415.709C87.578,404.912 87.475,394.116 87.271,383.322C75.766,379.877 68.483,371.372 69.198,359.022C69.569,351.968 72.812,345.373 78.171,340.773C85.337,334.528 91.381,334.32 100.133,334.94C106.259,327.537 114.571,313.98 120.224,305.701C126.318,296.778 133.557,286.895 139.139,277.87Z" style="fill:url(#_Linear6);fill-rule:nonzero;"/>
        <path d="M190.59,480.615C190.572,482.056 190.417,482.917 191.079,484.184C193.528,484.245 236.922,455.387 242.555,452.358C243.514,451.842 244.506,451.029 246.028,450.528L246.636,450.95C246.27,460.104 246.162,480.999 246.928,490.382C241.135,493.528 233.647,498.787 227.79,502.472C214.419,510.797 201.091,519.191 187.806,527.653C184.132,529.993 172.73,536.326 170.207,538.67C170.407,548.605 170.751,565.081 170.439,574.642C159.272,580.643 148.404,587.692 137.485,594.143C132.08,597.336 125.41,601.687 119.749,604.227C94.04,589.815 77.012,558.63 78.853,529.246C79.147,524.559 78.861,518.86 78.869,514.088L78.956,472.583C80.29,474.621 81.102,481.48 82.122,484.363C87.36,499.166 102.47,517.168 117.024,523.023L117.218,522.798C118.585,523.998 119.517,524.323 121.317,524.709C123.075,522.911 147.078,507.783 151.043,505.251C152.326,504.975 156.964,501.816 158.351,501.047C163.923,497.955 185.792,482.094 190.59,480.615Z" style="fill:rgb(80,51,73);fill-rule:nonzero;"/>
        <path d="M117.218,522.798C118.585,523.998 119.517,524.323 121.317,524.709C122.106,534.223 121.494,552.701 121.451,562.805C119.87,568.134 120.869,570.38 120.247,572.684C118.169,570.817 118.234,566.108 117.493,562.52C117.555,549.352 117.398,536.185 117.024,523.023L117.218,522.798Z" style="fill:rgb(185,93,176);fill-rule:nonzero;"/>
        <path d="M117.493,562.52C118.234,566.108 118.169,570.817 120.247,572.684C120.869,570.38 119.87,568.134 121.451,562.805C121.552,567.317 121.547,571.831 121.436,576.344L120.851,578.855L120.362,578.98L118.603,577.497C118.472,578.108 118.358,578.635 118.196,579.24C117.909,577.929 117.71,576.655 117.494,575.333C117.422,571.035 117.32,566.821 117.493,562.52Z" style="fill:rgb(138,54,110);fill-rule:nonzero;"/>
        <path d="M117.494,575.333C117.71,576.655 117.909,577.929 118.196,579.24C118.358,578.635 118.472,578.108 118.603,577.497L120.362,578.98L120.851,578.855L121.436,576.344C121.483,579.486 122.043,586.402 120.082,588.529L119.269,588.363C117.199,585.422 117.365,578.95 117.494,575.333Z" style="fill:rgb(107,47,86);fill-rule:nonzero;"/>
        <path d="M190.756,316.896C202.676,324.244 214.529,331.7 226.313,339.263C231.235,342.424 237.17,345.989 241.851,349.373C242.389,352.376 242.12,364.87 242.108,368.724C242.007,382.738 242.006,396.753 242.107,410.767C228.939,419.677 214.698,427.552 201.402,436.332C187.26,445.672 175.562,449.164 171.194,467.229L170.92,468.666L170.37,468.678C168.914,466.759 167.564,464.763 166.327,462.697C151.75,438.366 168.236,416.957 189.12,404.412L191.065,403.238C190.514,401.275 190.485,401.153 189,399.763C188.754,393.197 189.009,386.395 188.814,379.74C182.141,375.995 167.136,367.855 161.389,363.848C154.784,360.758 142.048,351.754 136.433,349.854C139.049,349.568 151.975,340.411 155.948,338.421C157.811,336.865 160.646,335.4 162.761,334.092C172.031,328.359 181.663,322.902 190.756,316.896Z" style="fill:url(#_Linear7);fill-rule:nonzero;"/>
        <path d="M190.756,316.896C202.676,324.244 214.529,331.7 226.313,339.263C231.235,342.424 237.17,345.989 241.851,349.373C238.876,350.513 228.805,357.315 225.64,359.401C223.583,360.724 220.453,362.853 218.392,363.976C209.621,369.498 201.04,375.047 192.045,380.2C190.551,380.099 190.144,380.15 189.011,379.134L188.814,379.74C182.141,375.995 167.136,367.855 161.389,363.848C154.784,360.758 142.048,351.754 136.433,349.854C139.049,349.568 151.975,340.411 155.948,338.421C157.811,336.865 160.646,335.4 162.761,334.092C172.031,328.359 181.663,322.902 190.756,316.896Z" style="fill:url(#_Linear8);fill-rule:nonzero;"/>
        <path d="M136.433,349.854C139.049,349.568 151.975,340.411 155.948,338.421C154.805,340.764 149.708,343.064 147.435,344.749C151.406,344.604 151.041,344.576 154.371,347.725C157.307,350.502 159.457,357.096 160.305,361.14C160.807,363.53 160.42,361.938 161.389,363.848C154.784,360.758 142.048,351.754 136.433,349.854Z" style="fill:rgb(126,199,224);fill-rule:nonzero;"/>
        <path d="M189.011,379.134C190.604,375.733 211.879,363.541 216.157,360.947C216.836,361.95 217.556,363.125 218.392,363.976C209.621,369.498 201.04,375.047 192.045,380.2C190.551,380.099 190.144,380.15 189.011,379.134Z" style="fill:url(#_Linear9);fill-rule:nonzero;"/>
        <path d="M216.157,360.947C217.298,360.032 222.06,357.467 223.64,357.749C224.827,357.961 224.825,358.383 225.64,359.401C223.583,360.724 220.453,362.853 218.392,363.976C217.556,363.125 216.836,361.95 216.157,360.947Z" style="fill:rgb(62,194,148);fill-rule:nonzero;"/>
        <path d="M188.814,379.74L189.011,379.134C190.144,380.15 190.551,380.099 192.045,380.2C191.994,383.796 191.658,391.072 191.882,394.368C191.717,396.439 191.542,401.664 191.065,403.238C190.514,401.275 190.485,401.153 189,399.763C188.754,393.197 189.009,386.395 188.814,379.74Z" style="fill:url(#_Linear10);fill-rule:nonzero;"/>
        <path d="M191.065,403.238C191.542,401.664 191.717,396.439 191.882,394.368C192.266,401.623 192.865,415.273 192.085,422.219C192.022,420.047 192.083,417.721 191.438,415.666L190.822,415.159C189.476,416.549 189.598,421.779 189.525,423.925C189.282,417.777 188.868,410.509 189.12,404.412L191.065,403.238Z" style="fill:rgb(81,85,158);fill-rule:nonzero;"/>
        <path d="M136.433,349.854C142.048,351.754 154.784,360.758 161.389,363.848C167.136,367.855 182.141,375.995 188.814,379.74C189.009,386.395 188.754,393.197 189,399.763C182.432,396.083 169.383,388.308 163.501,384.1C154.379,389.37 145.433,394.259 136.505,399.889C136.303,383.317 136.44,366.448 136.433,349.854Z" style="fill:rgb(81,85,158);fill-rule:nonzero;"/>
        <path d="M117.218,522.798C117.854,520.117 130.534,513.384 133.297,511.495C135.405,510.055 145.814,503.224 147.722,502.991L146.908,503.864C147.748,504.817 147.923,505.196 149.079,505.552L150.707,504.557L151.043,505.251C147.078,507.783 123.075,522.911 121.317,524.709C119.517,524.323 118.585,523.998 117.218,522.798Z" style="fill:rgb(223,210,232);fill-rule:nonzero;"/>
        <path d="M246.636,450.95C274.174,467.71 301.599,484.654 328.912,501.78C331.86,503.655 345.416,511.447 347.174,513.206L391.315,540.458C404.249,548.444 414.729,554.319 426.347,564.234L428.553,565.768C432.338,568.7 437.654,575.873 440.064,580.063C440.076,581.892 444.366,588.04 445.408,590.313C451.051,602.629 452.712,615.209 452.122,628.762C452.278,646.781 452.313,664.802 452.225,682.822C452.235,695.98 453.445,713.86 450.559,725.939C443.087,757.208 416.664,772.211 391.227,787.361C384.672,791.265 377.613,796.607 370.992,800.114L370.158,800.035L370.009,799.85C370.224,797.105 369.831,790.514 369.778,787.502C369.709,780.325 369.687,773.148 369.712,765.971C369.734,749.132 369.857,731.654 369.382,714.855C369.451,713.318 369.625,711.771 369.775,710.237C369.545,709.313 369.334,709.21 368.655,708.562C368.334,705.036 369.345,705.282 371.649,702.925C368.236,700.734 365.475,699.083 361.913,697.146C360.603,695.386 346.294,687.312 343.554,685.215C338.823,681.593 331.406,679.415 326.295,675.726L325.482,675.645C322.769,677.933 325.731,680.358 326.226,681.736C317.887,677.797 305.256,668.436 296.302,663.675C316.052,651.826 344.376,638.668 352.313,616.522C354.215,588.727 344.315,583.558 322.207,572.018C320.547,569.645 322.378,543.118 321.357,537.521C316.134,533.584 311.802,531.98 305.88,526.86C295.603,521.124 283.459,511.867 273.943,507.014C270.014,504.342 250.737,491.867 246.928,490.382C246.162,480.999 246.27,460.104 246.636,450.95Z" style="fill:url(#_Linear11);fill-rule:nonzero;"/>
        <path d="M452.122,628.762C452.278,646.781 452.313,664.802 452.225,682.822C452.235,695.98 453.445,713.86 450.559,725.939C443.087,757.208 416.664,772.211 391.227,787.361C384.672,791.265 377.613,796.607 370.992,800.114L370.158,800.035L370.009,799.85C370.224,797.105 369.831,790.514 369.778,787.502C369.709,780.325 369.687,773.148 369.712,765.971C369.734,749.132 369.857,731.654 369.382,714.855C369.451,713.318 369.625,711.771 369.775,710.237C370.283,711.029 370.385,710.984 371.238,711.345C372.838,710.745 372.842,708.702 374.991,707.548C380.192,705.159 390.576,698.14 395.735,694.837C399.952,692.459 404.12,689.996 408.237,687.45C411.262,686.021 427.362,675.977 429.152,673.842C438.354,668.4 445.709,650.901 448.825,641.169C449.862,637.929 450.369,631.145 452.122,628.762Z" style="fill:rgb(62,194,148);fill-rule:nonzero;"/>
        <path d="M369.775,710.237C370.283,711.029 370.385,710.984 371.238,711.345C372.838,710.745 372.842,708.702 374.991,707.548C375.775,726.471 374.933,748.428 374.733,767.519C374.336,761.259 374.086,754.99 373.983,748.717C372.364,748.61 372.996,748.438 371.62,749.415C369.397,753.005 371.013,763.18 370.421,768.328C370.118,767.452 369.924,766.872 369.712,765.971C369.734,749.132 369.857,731.654 369.382,714.855C369.451,713.318 369.625,711.771 369.775,710.237Z" style="fill:rgb(186,224,110);fill-rule:nonzero;"/>
        <path d="M246.636,450.95C274.174,467.71 301.599,484.654 328.912,501.78C331.86,503.655 345.416,511.447 347.174,513.206L346.929,513.947C349.497,515.511 353.475,517.47 354.014,520.663C355.245,527.949 347.422,533.002 344.368,538.581C342.95,541.169 342.297,544.916 341.013,547.69C337.197,547.086 335.773,541.327 332.843,541.816C323.577,534.98 317.141,529.791 305.88,526.86C295.603,521.124 283.459,511.867 273.943,507.014C270.014,504.342 250.737,491.867 246.928,490.382C246.162,480.999 246.27,460.104 246.636,450.95Z" style="fill:rgb(126,199,224);fill-rule:nonzero;"/>
        <path d="M305.88,526.86C317.141,529.791 323.577,534.98 332.843,541.816C334.722,543.8 335.941,544.987 338.751,547.69C357.586,565.809 365.136,592.267 352.686,616.195C352.561,616.304 352.437,616.413 352.313,616.522C354.215,588.727 344.315,583.558 322.207,572.018C320.547,569.645 322.378,543.118 321.357,537.521C316.134,533.584 311.802,531.98 305.88,526.86Z" style="fill:rgb(80,51,73);fill-rule:nonzero;"/>
        <path d="M389.124,692.202C396.169,694.435 399.685,686.998 408.237,687.45C404.12,689.996 399.952,692.459 395.735,694.837C390.576,698.14 380.192,705.159 374.991,707.548C372.842,708.702 372.838,710.745 371.238,711.345C370.385,710.984 370.283,711.029 369.775,710.237C369.545,709.313 369.334,709.21 368.655,708.562C368.334,705.036 369.345,705.282 371.649,702.925C374.78,700.666 379.989,697.517 383.438,695.874C384.646,694.853 387.66,693.106 389.124,692.202Z" style="fill:rgb(225,233,159);fill-rule:nonzero;"/>
        <path d="M410.949,679.554C411.858,680.673 412.573,681.803 413.956,682.2C416.089,681.815 418.504,677.594 420.86,676.744C422.338,676.211 428.069,673.826 429.152,673.842C427.362,675.977 411.262,686.021 408.237,687.45C399.685,686.998 396.169,694.435 389.124,692.202C390.655,690.787 412.621,677.706 415.211,676.371C414.768,677.159 411.901,678.913 410.949,679.554Z" style="fill:rgb(227,233,119);fill-rule:nonzero;"/>
        <path d="M246.928,490.382C250.737,491.867 270.014,504.342 273.943,507.014C283.459,511.867 295.603,521.124 305.88,526.86C311.802,531.98 316.134,533.584 321.357,537.521C322.378,543.118 320.547,569.645 322.207,572.018C321.241,574.481 322.145,619.409 322.227,625.872L268.558,660.195C262.711,663.958 251.195,670.463 246.363,674.438C221.682,658.313 194.924,643.304 170.108,627.204C171.38,612.125 169.713,590.828 170.439,574.642C170.751,565.081 170.407,548.605 170.207,538.67C172.73,536.326 184.132,529.993 187.806,527.653C201.091,519.191 214.419,510.797 227.79,502.472C233.647,498.787 241.135,493.528 246.928,490.382Z" style="fill:url(#_Linear12);fill-rule:nonzero;"/>
        <path d="M246.928,490.382C250.737,491.867 270.014,504.342 273.943,507.014C273.55,506.922 270.55,506.171 270.395,506.264C271.118,508.261 279.302,511.459 280.474,513.434C278.36,513.854 268.843,524.102 267.357,526.256C263.824,531.375 259.773,537.176 256.872,542.689C254.09,547.921 252.221,553.589 251.344,559.45C251.047,561.398 251.136,563.644 251.13,565.601C251.109,572.811 252.627,573.11 246.127,577.079C243.196,577.021 236.856,570.458 234.128,570.808C232.334,570.093 228.254,567.353 225.489,566.125C226.65,568.137 236.863,572.311 238.238,575.559C236.929,576.334 236.644,576.702 235.143,577.071C233.253,576.517 223.334,570.256 220.865,568.742L220.209,569.147C216.505,567.507 202.707,558.817 199.008,556.497C193.016,552.737 174.813,542.788 170.207,538.67C172.73,536.326 184.132,529.993 187.806,527.653C201.091,519.191 214.419,510.797 227.79,502.472C233.647,498.787 241.135,493.528 246.928,490.382Z" style="fill:rgb(240,155,105);fill-rule:nonzero;"/>
        <path d="M234.128,570.808C236.856,570.458 243.196,577.021 246.127,577.079C252.627,573.11 251.109,572.811 251.13,565.601C251.136,563.644 251.047,561.398 251.344,559.45C252.221,553.589 254.09,547.921 256.872,542.689C259.773,537.176 263.824,531.375 267.357,526.256C268.843,524.102 278.36,513.854 280.474,513.434C279.302,511.459 271.118,508.261 270.395,506.264C270.55,506.171 273.55,506.922 273.943,507.014C283.459,511.867 295.603,521.124 305.88,526.86C311.802,531.98 316.134,533.584 321.357,537.521C318.882,539.616 297.927,553.027 294.83,554.488L294.112,554.096C290.206,556.04 277.937,564.405 275.933,565.001C274.354,563.893 273.484,562.903 271.676,562.913C272.05,561.574 288.178,553.541 288.435,551.726C282.412,554.747 274.7,559.948 268.884,563.576C261.213,568.363 253.486,573.264 245.945,578.253C242.387,576.139 237.334,573.25 234.128,570.808Z" style="fill:rgb(239,180,43);fill-rule:nonzero;"/>
        <path d="M245.945,578.253C253.486,573.264 261.213,568.363 268.884,563.576C274.7,559.948 282.412,554.747 288.435,551.726C288.178,553.541 272.05,561.574 271.676,562.913C273.484,562.903 274.354,563.893 275.933,565.001C277.937,564.405 290.206,556.04 294.112,554.096L294.83,554.488C285.414,560.259 276.056,566.123 266.756,572.079C261.877,575.227 253.489,581.029 248.544,583.535C248.434,598.263 248.244,612.99 247.973,627.716C247.425,625.575 248.113,621.484 247.61,618.74C246.006,618.52 246.641,618.429 245.187,619.035C242.631,621.644 244.849,626.419 243.976,628.88L243.379,626.699C243.625,624.854 243.461,619.185 243.449,617.11L243.333,597.912C243.563,593.437 243.386,587.676 243.374,583.108C236.4,579.266 226.898,573.484 220.209,569.147L220.865,568.742C223.334,570.256 233.253,576.517 235.143,577.071C236.644,576.702 236.929,576.334 238.238,575.559C236.863,572.311 226.65,568.137 225.489,566.125C228.254,567.353 232.334,570.093 234.128,570.808C237.334,573.25 242.387,576.139 245.945,578.253Z" style="fill:rgb(230,201,75);fill-rule:nonzero;"/>
        <path d="M243.379,626.699C242.908,633.97 243.837,646.294 242.923,652.88L242.609,652.907C241.365,648.787 241.682,602.071 243.333,597.912L243.449,617.11C243.461,619.185 243.625,624.854 243.379,626.699Z" style="fill:rgb(203,67,65);fill-rule:nonzero;"/>
        <path d="M246.109,32.942C253.171,76.76 263.107,120.26 270.199,164.115C270.996,169.044 272.157,176.245 273.747,180.875C277.539,184.4 284.906,188.463 289.524,191.663C295.986,195.733 340.693,223.951 342.307,226.319C354.645,218.146 369.493,220.315 377.749,233.018C381.346,238.574 382.571,245.338 381.151,251.803C379.706,258.361 375.672,264.057 369.965,267.595C365.674,270.279 361.885,271.213 356.928,271.416C349.777,289.509 344.068,308.671 337.29,326.937C335.982,330.462 334.782,334.177 333.818,337.81C328.949,334.048 325.934,331.633 320.471,328.92C328.272,307.957 335.678,286.303 343.165,265.144C329.796,252.14 336.822,242.6 333.005,237.785C330.136,237.42 285.352,207.587 278.881,203.231L277.336,202.567L276.873,202.934C277.464,208.707 279.683,217.774 280.815,223.64L289.416,269.371C290.763,276.527 293.319,288.192 294.057,294.949L294.575,297.547C292.253,300.94 271.266,312.239 266.968,315.897C262.573,319.638 252.036,324.573 247.974,328.766C246.223,328.957 239.614,324.407 237.727,323.264L220.361,312.775C213.098,308.346 205.3,303.68 198.142,299.02C196.992,298.271 197.201,298.169 197.057,296.986C199.272,281.022 203.459,264.283 205.864,248.277C206.265,245.611 207.003,242.32 207.742,239.747C208.098,235.632 211.746,217.429 212.805,213.096C212.757,212.209 214.564,203.026 214.814,201.643C216.928,189.513 219.145,177.401 221.464,165.309C226.881,134.837 232.491,104.401 238.294,74.001C240.804,60.673 243.13,46.02 246.109,32.942Z" style="fill:url(#_Linear13);fill-rule:nonzero;"/>
        <path d="M244.529,207.078C245.12,205.607 245.494,204.828 246.261,203.439C247.71,207.852 254.671,220.181 257.165,225.157L275.438,260.911C279.005,267.897 289.225,289.909 294.057,294.949L294.575,297.547C292.253,300.94 271.266,312.239 266.968,315.897C262.573,319.638 252.036,324.573 247.974,328.766C246.223,328.957 239.614,324.407 237.727,323.264L220.361,312.775C213.098,308.346 205.3,303.68 198.142,299.02C196.992,298.271 197.201,298.169 197.057,296.986C199.272,281.022 203.459,264.283 205.864,248.277C206.265,245.611 207.003,242.32 207.742,239.747L208.351,239.727C209.715,236.073 208.455,233.145 211.159,231.141C216.858,230.216 221.061,240.569 225.231,242.313C224.391,245.07 221.914,246.909 222.339,249.527C225.581,244.403 231.098,233.465 233.724,227.898C236.603,223.393 241.888,212.273 244.529,207.078Z" style="fill:rgb(80,51,73);fill-rule:nonzero;"/>
        <path d="M244.529,207.078C245.12,205.607 245.494,204.828 246.261,203.439C247.71,207.852 254.671,220.181 257.165,225.157L275.438,260.911C279.005,267.897 289.225,289.909 294.057,294.949L294.575,297.547C292.253,300.94 271.266,312.239 266.968,315.897C262.573,319.638 252.036,324.573 247.974,328.766C246.293,323.765 246.512,305.161 246.482,299.08L246.318,234.316C246.22,226.276 246.207,217.565 245.775,209.518C245.706,208.246 245.272,207.864 244.529,207.078Z" style="fill:rgb(81,85,158);fill-rule:nonzero;"/>
        <path d="M207.742,239.747L208.351,239.727C209.715,236.073 208.455,233.145 211.159,231.141C216.858,230.216 221.061,240.569 225.231,242.313C224.391,245.07 221.914,246.909 222.339,249.527C220.002,255.088 199.919,293.911 197.32,296.688C197.23,296.785 197.144,296.887 197.057,296.986C199.272,281.022 203.459,264.283 205.864,248.277C206.265,245.611 207.003,242.32 207.742,239.747Z" style="fill:rgb(185,93,176);fill-rule:nonzero;"/>
        <path d="M207.742,239.747C208.098,235.632 211.746,217.429 212.805,213.096C214.057,216.686 209.657,226.051 211.421,228.821C213.575,229.797 215.162,230.477 217.2,231.719C220.447,233.698 223.83,240.245 225.796,241.343C226.197,240.481 226.607,239.522 227.251,238.832C228.908,237.054 231.512,228.361 233.724,227.898C231.098,233.465 225.581,244.403 222.339,249.527C221.914,246.909 224.391,245.07 225.231,242.313C221.061,240.569 216.858,230.216 211.159,231.141C208.455,233.145 209.715,236.073 208.351,239.727L207.742,239.747Z" style="fill:rgb(151,103,192);fill-rule:nonzero;"/>
        <path d="M301.199,317.755C308.536,320.893 313.79,325.17 320.471,328.92C325.934,331.633 328.949,334.048 333.818,337.81C341.5,341.133 346.762,346.394 353.337,350.156L353.93,350.73C354.12,352.764 354.133,354.695 354.086,356.736C353.681,374.45 354.579,392.251 353.955,409.945C351.128,412.568 341.393,418.555 337.797,420.865L301.97,443.697L250.836,411.191C250.992,390.644 250.993,370.096 250.841,349.548C260.535,343.311 270.194,337.007 279.984,330.922C282.698,329.235 285.376,327.473 288.234,326.04C291.497,323.696 297.728,319.656 301.199,317.755Z" style="fill:rgb(239,96,55);fill-rule:nonzero;"/>
        <path d="M301.199,317.755C308.536,320.893 313.79,325.17 320.471,328.92C325.934,331.633 328.949,334.048 333.818,337.81C341.5,341.133 346.762,346.394 353.337,350.156C349.222,353.055 329.042,366.913 325.431,368.178C317.904,373.132 311.738,377.036 303.899,381.477C303.697,382.419 303.506,383.323 303.262,384.256L303.073,382.413L301.836,382.518C301.175,383.557 301.178,384.168 300.994,385.369C300.96,384.359 300.748,382.982 300.621,381.95L296.074,378.91C293.861,378.293 279.914,368.639 277.462,366.822C275.438,365.923 270.303,362.372 268.187,360.968C262.438,357.112 256.655,353.305 250.841,349.548C260.535,343.311 270.194,337.007 279.984,330.922C282.698,329.235 285.376,327.473 288.234,326.04C291.497,323.696 297.728,319.656 301.199,317.755Z" style="fill:rgb(240,155,105);fill-rule:nonzero;"/>
        <path d="M250.841,349.548C260.535,343.311 270.194,337.007 279.984,330.922C282.698,329.235 285.376,327.473 288.234,326.04C287.247,328.031 279.99,332.105 277.727,333.391C279.93,341.814 279.675,348.063 275.969,355.868C271.932,357.593 270.46,357.365 266.476,358.281L266.386,358.725C267.681,359.5 268.17,360.162 269.305,361.003C271.254,362.448 276.675,364.492 277.462,366.822C275.438,365.923 270.303,362.372 268.187,360.968C262.438,357.112 256.655,353.305 250.841,349.548Z" style="fill:rgb(208,135,178);fill-rule:nonzero;"/>
        <path d="M302.389,378.223C305.1,376.153 320.038,366.125 322.815,365.441L322.728,365.883C321.331,366.755 319.94,367.634 318.553,368.522C319.049,369.806 318.713,369.372 319.815,370.172C321.309,370.226 323.567,368.429 325.184,367.523L325.431,368.178C317.904,373.132 311.738,377.036 303.899,381.477C303.697,382.419 303.506,383.323 303.262,384.256L303.073,382.413L301.836,382.518C301.175,383.557 301.178,384.168 300.994,385.369C300.96,384.359 300.748,382.982 300.621,381.95L296.074,378.91L296.565,378.008L298.319,379.227C299.65,379.251 299.149,379.421 300.196,378.581C299.922,377.587 298.795,376.638 298.03,375.857L298.394,376.355L298.399,375.973L302.389,378.223Z" style="fill:rgb(227,233,119);fill-rule:nonzero;"/>
        <path d="M300.994,385.369C301.178,384.168 301.175,383.557 301.836,382.518L303.073,382.413L303.262,384.256C303.506,383.323 303.697,382.419 303.899,381.477C304.16,383.53 304.144,384.338 304.039,386.42C304.887,398.495 303.806,422.903 301.831,435.001L301.606,434.403L301.89,434.924L302.013,434.584L301.639,434.326C300.969,429.009 300.871,416.178 300.816,410.51C300.738,402.5 300.064,389.671 300.621,381.95C300.748,382.982 300.96,384.359 300.994,385.369Z" style="fill:rgb(240,155,105);fill-rule:nonzero;"/>
        <path d="M300.994,385.369C301.178,384.168 301.175,383.557 301.836,382.518L303.073,382.413L303.262,384.256C303.506,383.323 303.697,382.419 303.899,381.477C304.16,383.53 304.144,384.338 304.039,386.42C303.383,389.678 304.083,392.918 303.151,396C302.65,396.2 302.129,396.361 301.696,396.687L301.211,396.175C301.114,393.18 300.614,388.074 300.994,385.369Z" style="fill:rgb(230,201,75);fill-rule:nonzero;"/>
        <path d="M380.245,389.115C384.538,367.988 413.766,366.197 419.711,388.888C420.847,395.201 419.915,400.631 416.217,405.954C415.961,406.321 415.699,406.684 415.429,407.041C419.769,415.704 424.58,424.209 429.181,432.743C435.536,444.53 441.518,456.485 447.764,468.332C455.343,467.173 461.263,467.224 467.831,472.037C473.259,475.982 476.867,481.95 477.836,488.591C479.96,503.688 470.322,513.233 456.639,517.03C455.154,521.212 453.894,526.125 452.78,530.458C448.547,546.919 443.954,563.526 440.064,580.063C437.654,575.873 432.338,568.7 428.553,565.768C432.704,548.776 437.761,530.734 442.149,513.639C441.586,513.337 441.028,513.023 440.477,512.699C434.364,509.076 432.191,502.554 430.563,496.13C410.555,491.054 390.517,486.1 370.449,481.267C363.187,485.719 355.464,488.974 347.321,484.114C337.614,478.322 334.118,465.714 340.278,455.961C343.196,451.384 347.819,448.162 353.122,447.009C367.228,443.839 374.451,453.703 376.993,466.074C389.345,468.268 404.618,473.432 417.231,476.169C422.241,477.256 428.196,479.432 433.227,480.023C434.552,479.144 434.093,479.559 434.945,477.949C435.029,474.564 418.279,445.874 415.258,440.498C411.351,433.546 405.112,421.154 400.905,414.573C386.659,414.876 377.716,402.882 380.245,389.115Z" style="fill:url(#_Linear14);fill-rule:nonzero;"/>
        <path d="M380.245,389.115C384.538,367.988 413.766,366.197 419.711,388.888L419.311,389.875C419.151,389.89 418.985,389.876 418.83,389.919C418.778,389.933 418.192,390.304 418.186,390.308C415.649,391.738 391,391.828 388.102,390.869C386.385,390.301 384.133,388.43 382.459,388.295C380.848,389.613 380.868,391.257 380.485,393.45C380.38,392.002 380.253,390.567 380.245,389.115Z" style="fill:rgb(62,194,148);fill-rule:nonzero;"/>
    </g>
    <defs>
        <linearGradient id="_Linear1" x1="0" y1="0" x2="1" y2="0" gradientUnits="userSpaceOnUse" gradientTransform="matrix(-108.499,66.5576,-66.5576,-108.499,299.073,705.442)"><stop offset="0" style="stop-color:rgb(58,203,94);stop-opacity:1"/><stop offset="1" style="stop-color:rgb(57,175,236);stop-opacity:1"/></linearGradient>
        <linearGradient id="_Linear2" x1="0" y1="0" x2="1" y2="0" gradientUnits="userSpaceOnUse" gradientTransform="matrix(6.4653,26.3411,-26.3411,6.4653,249.93,758.625)"><stop offset="0" style="stop-color:rgb(77,209,190);stop-opacity:1"/><stop offset="1" style="stop-color:rgb(187,242,222);stop-opacity:1"/></linearGradient>
        <linearGradient id="_Linear3" x1="0" y1="0" x2="1" y2="0" gradientUnits="userSpaceOnUse" gradientTransform="matrix(-87.8241,62.5303,-62.5303,-87.8241,168.349,629.322)"><stop offset="0" style="stop-color:rgb(56,200,117);stop-opacity:1"/><stop offset="1" style="stop-color:rgb(57,177,231);stop-opacity:1"/></linearGradient>
        <linearGradient id="_Linear4" x1="0" y1="0" x2="1" y2="0" gradientUnits="userSpaceOnUse" gradientTransform="matrix(-10.1214,-10.0435,10.0435,-10.1214,136.385,704.772)"><stop offset="0" style="stop-color:rgb(117,207,187);stop-opacity:1"/><stop offset="1" style="stop-color:rgb(175,244,226);stop-opacity:1"/></linearGradient>
        <linearGradient id="_Linear5" x1="0" y1="0" x2="1" y2="0" gradientUnits="userSpaceOnUse" gradientTransform="matrix(0.41189,-37.2817,37.2817,0.41189,117.037,755.061)"><stop offset="0" style="stop-color:rgb(51,136,158);stop-opacity:1"/><stop offset="1" style="stop-color:rgb(116,210,171);stop-opacity:1"/></linearGradient>
        <linearGradient id="_Linear6" x1="0" y1="0" x2="1" y2="0" gradientUnits="userSpaceOnUse" gradientTransform="matrix(123.765,-232.904,232.904,123.765,82.8616,504.048)"><stop offset="0" style="stop-color:rgb(153,109,198);stop-opacity:1"/><stop offset="1" style="stop-color:rgb(46,195,237);stop-opacity:1"/></linearGradient>
        <linearGradient id="_Linear7" x1="0" y1="0" x2="1" y2="0" gradientUnits="userSpaceOnUse" gradientTransform="matrix(100.204,-33.1956,33.1956,100.204,153.768,426.199)"><stop offset="0" style="stop-color:rgb(77,54,103);stop-opacity:1"/><stop offset="1" style="stop-color:rgb(65,61,159);stop-opacity:1"/></linearGradient>
        <linearGradient id="_Linear8" x1="0" y1="0" x2="1" y2="0" gradientUnits="userSpaceOnUse" gradientTransform="matrix(-90.8191,9.20349,-9.20349,-90.8191,238.769,343.022)"><stop offset="0" style="stop-color:rgb(63,204,77);stop-opacity:1"/><stop offset="1" style="stop-color:rgb(59,174,227);stop-opacity:1"/></linearGradient>
        <linearGradient id="_Linear9" x1="0" y1="0" x2="1" y2="0" gradientUnits="userSpaceOnUse" gradientTransform="matrix(-17.8532,23.5781,-23.5781,-17.8532,212.662,359.013)"><stop offset="0" style="stop-color:rgb(93,203,176);stop-opacity:1"/><stop offset="1" style="stop-color:rgb(163,254,240);stop-opacity:1"/></linearGradient>
        <linearGradient id="_Linear10" x1="0" y1="0" x2="1" y2="0" gradientUnits="userSpaceOnUse" gradientTransform="matrix(-0.2211,-18.1858,18.1858,-0.2211,190.496,399.025)"><stop offset="0" style="stop-color:rgb(108,161,204);stop-opacity:1"/><stop offset="1" style="stop-color:rgb(126,193,214);stop-opacity:1"/></linearGradient>
        <linearGradient id="_Linear11" x1="0" y1="0" x2="1" y2="0" gradientUnits="userSpaceOnUse" gradientTransform="matrix(-123.642,-117.439,117.439,-123.642,427.371,676.043)"><stop offset="0" style="stop-color:rgb(224,233,51);stop-opacity:1"/><stop offset="1" style="stop-color:rgb(31,196,141);stop-opacity:1"/></linearGradient>
        <linearGradient id="_Linear12" x1="0" y1="0" x2="1" y2="0" gradientUnits="userSpaceOnUse" gradientTransform="matrix(-34.8858,143.003,-143.003,-34.8858,260.281,524.984)"><stop offset="0" style="stop-color:rgb(243,107,54);stop-opacity:1"/><stop offset="1" style="stop-color:rgb(228,78,94);stop-opacity:1"/></linearGradient>
        <linearGradient id="_Linear13" x1="0" y1="0" x2="1" y2="0" gradientUnits="userSpaceOnUse" gradientTransform="matrix(-195.638,-96.7716,96.7716,-195.638,389.683,235.123)"><stop offset="0" style="stop-color:rgb(222,103,156);stop-opacity:1"/><stop offset="1" style="stop-color:rgb(44,164,237);stop-opacity:1"/></linearGradient>
        <linearGradient id="_Linear14" x1="0" y1="0" x2="1" y2="0" gradientUnits="userSpaceOnUse" gradientTransform="matrix(-33.5674,177.704,-177.704,-33.5674,424.152,390.347)"><stop offset="0" style="stop-color:rgb(57,188,164);stop-opacity:1"/><stop offset="1" style="stop-color:rgb(89,141,255);stop-opacity:1"/></linearGradient>
    </defs>
</svg>
